# xmcd CD database file
#
# Track frame offsets:
#	150
#	31642
#	53317
#	64585
#	81477
#	102700
#	117415
#	138235
#	157817
#	168480
#	177450
#	191817
#	206367
#
# Disc length: 2955 seconds
#
# Revision: 0
# Processed by: cddbd v1.4PL0 Copyright (c) Steve Scherf et al.
# Submitted via: CDex 1.50Beta7
#
DISCID=ab0b890d
DTITLE=Various Artist - Takoma Slide
DYEAR=1999
DGENRE=Blues
TTITLE0=Rolling and Tumbling Blues - Eddie ''One String'' Jones (1960)
TTITLE1=Rolling Stone - Robert Pete Williams (1960)
TTITLE2=Poor Boy - John Fahey (1965)
TTITLE3=New Orleans Streamline - Bukka White (1969)
TTITLE4=Preachin' Blues - Son House (1964)
TTITLE5=T.L. Walkin' - Ron Tompson and The Resistors (1983)
TTITLE6=At the Cross - Michael Bloomfield (1977)
TTITLE7=Everybody Slides - Mike Auldridge (1974)
TTITLE8=Poor Boy Long Ways from Home - Bukka White (1969)
TTITLE9=Phoney Baloney - Chris Barrow (1981)
TTITLE10=Vaseline Machine Gun - Leo Kottke (1969)
TTITLE11=Goodbye, My Friend - Michael Gulezian (1980)
TTITLE12=O Lord, I Want You to Help Me - Rev. Robert Wilkins (1960)
EXTD=YEAR: 1999
EXTT0=
EXTT1=
EXTT2=
EXTT3=
EXTT4=
EXTT5=
EXTT6=
EXTT7=
EXTT8=
EXTT9=
EXTT10=
EXTT11=
EXTT12=
PLAYORDER=
